<mxfile host="app.diagrams.net" modified="2024-04-03T18:32:58.579Z" agent="Mozilla/5.0 (Windows NT 10.0; Win64; x64) AppleWebKit/537.36 (KHTML, like Gecko) Chrome/120.0.0.0 YaBrowser/24.1.0.0 Safari/537.36" etag="HF0NeDwMGIvzOk1lbvcG" version="24.2.2" type="device">
  <diagram name="Page-1" id="IHWzkIL4sAo3DZaeVr-Q">
    <mxGraphModel dx="2004" dy="1150" grid="1" gridSize="10" guides="1" tooltips="1" connect="1" arrows="1" fold="1" page="1" pageScale="1" pageWidth="827" pageHeight="1169" math="0" shadow="0">
      <root>
        <mxCell id="0" />
        <mxCell id="1" parent="0" />
        <mxCell id="EoDkHZXWkJFUi0arK3kK-1" value="Пользователь" style="swimlane;whiteSpace=wrap" vertex="1" parent="1">
          <mxGeometry y="128" width="280" height="702" as="geometry" />
        </mxCell>
        <mxCell id="EoDkHZXWkJFUi0arK3kK-2" value="" style="ellipse;shape=startState;fillColor=#000000;strokeColor=#ff0000;" vertex="1" parent="EoDkHZXWkJFUi0arK3kK-1">
          <mxGeometry x="100" y="40" width="30" height="30" as="geometry" />
        </mxCell>
        <mxCell id="EoDkHZXWkJFUi0arK3kK-3" value="" style="edgeStyle=elbowEdgeStyle;elbow=horizontal;verticalAlign=bottom;endArrow=open;endSize=8;strokeColor=#FF0000;endFill=1;rounded=0" edge="1" parent="EoDkHZXWkJFUi0arK3kK-1" source="EoDkHZXWkJFUi0arK3kK-2" target="EoDkHZXWkJFUi0arK3kK-4">
          <mxGeometry x="100" y="40" as="geometry">
            <mxPoint x="115" y="110" as="targetPoint" />
          </mxGeometry>
        </mxCell>
        <mxCell id="EoDkHZXWkJFUi0arK3kK-4" value="Заполнение формы&#xa; авторизации" style="" vertex="1" parent="EoDkHZXWkJFUi0arK3kK-1">
          <mxGeometry x="60" y="212" width="110" height="50" as="geometry" />
        </mxCell>
        <mxCell id="EoDkHZXWkJFUi0arK3kK-5" value="Нажатие кнопки " style="" vertex="1" parent="EoDkHZXWkJFUi0arK3kK-1">
          <mxGeometry x="60" y="322" width="110" height="50" as="geometry" />
        </mxCell>
        <mxCell id="EoDkHZXWkJFUi0arK3kK-6" value="" style="endArrow=open;strokeColor=#FF0000;endFill=1;rounded=0" edge="1" parent="EoDkHZXWkJFUi0arK3kK-1" source="EoDkHZXWkJFUi0arK3kK-4" target="EoDkHZXWkJFUi0arK3kK-5">
          <mxGeometry relative="1" as="geometry" />
        </mxCell>
        <mxCell id="EoDkHZXWkJFUi0arK3kK-7" value="Отправка формы " style="" vertex="1" parent="EoDkHZXWkJFUi0arK3kK-1">
          <mxGeometry x="60" y="445" width="110" height="50" as="geometry" />
        </mxCell>
        <mxCell id="EoDkHZXWkJFUi0arK3kK-8" value="" style="endArrow=open;strokeColor=#FF0000;endFill=1;rounded=0" edge="1" parent="EoDkHZXWkJFUi0arK3kK-1" source="EoDkHZXWkJFUi0arK3kK-5" target="EoDkHZXWkJFUi0arK3kK-7">
          <mxGeometry relative="1" as="geometry" />
        </mxCell>
        <mxCell id="EoDkHZXWkJFUi0arK3kK-9" value="" style="ellipse;shape=endState;fillColor=#000000;strokeColor=#ff0000" vertex="1" parent="EoDkHZXWkJFUi0arK3kK-1">
          <mxGeometry x="100" y="642" width="30" height="30" as="geometry" />
        </mxCell>
        <mxCell id="EoDkHZXWkJFUi0arK3kK-10" value="Система" style="swimlane;whiteSpace=wrap" vertex="1" parent="1">
          <mxGeometry x="280.5" y="128" width="280" height="702" as="geometry" />
        </mxCell>
        <mxCell id="EoDkHZXWkJFUi0arK3kK-11" value="" style="ellipse;shape=startState;fillColor=#000000;strokeColor=#ff0000;" vertex="1" parent="EoDkHZXWkJFUi0arK3kK-10">
          <mxGeometry x="125.5" y="52" width="30" height="30" as="geometry" />
        </mxCell>
        <mxCell id="EoDkHZXWkJFUi0arK3kK-12" value="" style="edgeStyle=elbowEdgeStyle;elbow=horizontal;verticalAlign=bottom;endArrow=open;endSize=8;strokeColor=#FF0000;endFill=1;rounded=0" edge="1" parent="EoDkHZXWkJFUi0arK3kK-10" source="EoDkHZXWkJFUi0arK3kK-11" target="EoDkHZXWkJFUi0arK3kK-13">
          <mxGeometry x="40" y="20" as="geometry">
            <mxPoint x="120.5" y="102" as="targetPoint" />
          </mxGeometry>
        </mxCell>
        <mxCell id="EoDkHZXWkJFUi0arK3kK-13" value="Загрузка страницы" style="" vertex="1" parent="EoDkHZXWkJFUi0arK3kK-10">
          <mxGeometry x="85.5" y="122" width="110" height="50" as="geometry" />
        </mxCell>
        <mxCell id="EoDkHZXWkJFUi0arK3kK-14" value="Выполнение &#xa;запроса поиска&#xa; по логину и паролю" style="" vertex="1" parent="EoDkHZXWkJFUi0arK3kK-10">
          <mxGeometry x="45.5" y="445" width="110" height="50" as="geometry" />
        </mxCell>
        <mxCell id="EoDkHZXWkJFUi0arK3kK-15" value="Вернулась&amp;nbsp;&lt;div&gt;строка?&lt;/div&gt;" style="shape=rhombus;perimeter=rhombusPerimeter;whiteSpace=wrap;html=1;" vertex="1" parent="EoDkHZXWkJFUi0arK3kK-10">
          <mxGeometry x="75" y="542" width="110" height="50" as="geometry" />
        </mxCell>
        <mxCell id="EoDkHZXWkJFUi0arK3kK-16" value="База данных" style="swimlane;whiteSpace=wrap" vertex="1" parent="1">
          <mxGeometry x="560" y="128" width="260" height="702" as="geometry" />
        </mxCell>
        <mxCell id="EoDkHZXWkJFUi0arK3kK-17" value="Выполнение &#xa;SQL запроса" style="" vertex="1" parent="EoDkHZXWkJFUi0arK3kK-16">
          <mxGeometry x="90" y="445" width="110" height="50" as="geometry" />
        </mxCell>
        <mxCell id="EoDkHZXWkJFUi0arK3kK-18" value="" style="endArrow=open;strokeColor=#FF0000;endFill=1;rounded=0" edge="1" parent="1" source="EoDkHZXWkJFUi0arK3kK-7" target="EoDkHZXWkJFUi0arK3kK-14">
          <mxGeometry relative="1" as="geometry" />
        </mxCell>
        <mxCell id="EoDkHZXWkJFUi0arK3kK-19" value="" style="edgeStyle=elbowEdgeStyle;elbow=horizontal;verticalAlign=bottom;endArrow=open;endSize=8;strokeColor=#FF0000;endFill=1;rounded=0;" edge="1" parent="1" source="EoDkHZXWkJFUi0arK3kK-13" target="EoDkHZXWkJFUi0arK3kK-4">
          <mxGeometry x="100" y="40" as="geometry">
            <mxPoint x="126" y="350" as="targetPoint" />
            <mxPoint x="125" y="208" as="sourcePoint" />
            <Array as="points">
              <mxPoint x="145.5" y="270" />
            </Array>
          </mxGeometry>
        </mxCell>
        <mxCell id="EoDkHZXWkJFUi0arK3kK-20" value="" style="edgeStyle=none;strokeColor=#FF0000;endArrow=open;endFill=1;rounded=0;exitX=0.5;exitY=1;exitDx=0;exitDy=0;" edge="1" parent="1" source="EoDkHZXWkJFUi0arK3kK-17" target="EoDkHZXWkJFUi0arK3kK-15">
          <mxGeometry width="100" height="100" relative="1" as="geometry">
            <mxPoint x="540" y="607.5" as="sourcePoint" />
            <mxPoint x="660" y="608" as="targetPoint" />
            <Array as="points">
              <mxPoint x="705.5" y="640" />
              <mxPoint x="410.5" y="640" />
            </Array>
          </mxGeometry>
        </mxCell>
        <mxCell id="EoDkHZXWkJFUi0arK3kK-21" value="" style="edgeStyle=none;strokeColor=#FF0000;endArrow=open;endFill=1;rounded=0;exitX=0;exitY=0.5;exitDx=0;exitDy=0;entryX=0.5;entryY=0;entryDx=0;entryDy=0;" edge="1" parent="1" source="EoDkHZXWkJFUi0arK3kK-15" target="EoDkHZXWkJFUi0arK3kK-9">
          <mxGeometry width="100" height="100" relative="1" as="geometry">
            <mxPoint x="715.5" y="633" as="sourcePoint" />
            <mxPoint x="456.5" y="696" as="targetPoint" />
            <Array as="points">
              <mxPoint x="115.5" y="695" />
            </Array>
          </mxGeometry>
        </mxCell>
        <mxCell id="EoDkHZXWkJFUi0arK3kK-22" value="Да" style="edgeLabel;html=1;align=center;verticalAlign=middle;resizable=0;points=[];" vertex="1" connectable="0" parent="EoDkHZXWkJFUi0arK3kK-21">
          <mxGeometry x="-0.1644" relative="1" as="geometry">
            <mxPoint as="offset" />
          </mxGeometry>
        </mxCell>
        <mxCell id="EoDkHZXWkJFUi0arK3kK-23" value="" style="edgeStyle=none;strokeColor=#FF0000;endArrow=open;endFill=1;rounded=0;exitX=1;exitY=0.5;exitDx=0;exitDy=0;entryX=0;entryY=0.5;entryDx=0;entryDy=0;" edge="1" parent="1" source="EoDkHZXWkJFUi0arK3kK-14" target="EoDkHZXWkJFUi0arK3kK-17">
          <mxGeometry width="100" height="100" relative="1" as="geometry">
            <mxPoint x="715.5" y="633" as="sourcePoint" />
            <mxPoint x="456.5" y="696" as="targetPoint" />
          </mxGeometry>
        </mxCell>
        <mxCell id="EoDkHZXWkJFUi0arK3kK-24" value="" style="edgeStyle=none;strokeColor=#FF0000;endArrow=open;endFill=1;rounded=0;exitX=1;exitY=0.5;exitDx=0;exitDy=0;entryX=1;entryY=0.5;entryDx=0;entryDy=0;" edge="1" parent="1" source="EoDkHZXWkJFUi0arK3kK-15" target="EoDkHZXWkJFUi0arK3kK-4">
          <mxGeometry width="100" height="100" relative="1" as="geometry">
            <mxPoint x="365.5" y="705" as="sourcePoint" />
            <mxPoint x="195.5" y="430" as="targetPoint" />
            <Array as="points">
              <mxPoint x="465.5" y="365" />
            </Array>
          </mxGeometry>
        </mxCell>
        <mxCell id="EoDkHZXWkJFUi0arK3kK-25" value="Нет" style="edgeLabel;html=1;align=center;verticalAlign=middle;resizable=0;points=[];" vertex="1" connectable="0" parent="EoDkHZXWkJFUi0arK3kK-24">
          <mxGeometry x="-0.1802" y="-2" relative="1" as="geometry">
            <mxPoint as="offset" />
          </mxGeometry>
        </mxCell>
      </root>
    </mxGraphModel>
  </diagram>
</mxfile>
